HIERARCHY
ROOT root
{
	OFFSET 0.000000 0.000000 0.000000
	CHANNELS 6 Xposition Yposition Zposition Zrotation Yrotation Xrotation
	JOINT lhip
	{
		OFFSET 0.058581 -0.082280 -0.017664
		CHANNELS 3 Zrotation Yrotation Xrotation
		JOINT lknee
		{
			OFFSET 0.043451 -0.386469 0.008037
			CHANNELS 3 Zrotation Yrotation Xrotation
			JOINT lankle
			{
				OFFSET -0.014790 -0.426874 -0.037428
				CHANNELS 3 Zrotation Yrotation Xrotation
				JOINT ltoe
				{
					OFFSET 0.041054 -0.060286 0.122042
					CHANNELS 3 Zrotation Yrotation Xrotation
					End Site
					{
						OFFSET 0.000000 0.000000 0.000000
					}
				}
			}
		}
	}
	JOINT rhip
	{
		OFFSET -0.060310 -0.090513 -0.013543
		CHANNELS 3 Zrotation Yrotation Xrotation
		JOINT rknee
		{
			OFFSET -0.043257 -0.383688 -0.004843
			CHANNELS 3 Zrotation Yrotation Xrotation
			JOINT rankle
			{
				OFFSET 0.019056 -0.420046 -0.034562
				CHANNELS 3 Zrotation Yrotation Xrotation
				JOINT rtoe
				{
					OFFSET -0.034840 -0.062106 0.130323
					CHANNELS 3 Zrotation Yrotation Xrotation
					End Site
					{
						OFFSET 0.000000 0.000000 0.000000
					}
				}
			}
		}
	}
	JOINT lowerback
	{
		OFFSET 0.004439 0.124404 -0.038385
		CHANNELS 3 Zrotation Yrotation Xrotation
		JOINT upperback
		{
			OFFSET 0.004488 0.137956 0.026820
			CHANNELS 3 Zrotation Yrotation Xrotation
			JOINT chest
			{
				OFFSET -0.002265 0.056032 0.002855
				CHANNELS 3 Zrotation Yrotation Xrotation
				JOINT lowerneck
				{
					OFFSET -0.013390 0.211636 -0.033468
					CHANNELS 3 Zrotation Yrotation Xrotation
					JOINT upperneck
					{
						OFFSET 0.010113 0.088937 0.050410
						CHANNELS 3 Zrotation Yrotation Xrotation
						End Site
						{
							OFFSET 0.000000 0.000000 0.000000
						}
					}
				}
				JOINT lclavicle
				{
					OFFSET 0.071702 0.114000 -0.018898
					CHANNELS 3 Zrotation Yrotation Xrotation
					JOINT lshoulder
					{
						OFFSET 0.122921 0.045205 -0.019046
						CHANNELS 3 Zrotation Yrotation Xrotation
						JOINT lelbow
						{
							OFFSET 0.255332 -0.015649 -0.022946
							CHANNELS 3 Zrotation Yrotation Xrotation
							JOINT lwrist
							{
								OFFSET 0.265709 0.012698 -0.007375
								CHANNELS 3 Zrotation Yrotation Xrotation
								End Site
								{
									OFFSET 0.000000 0.000000 0.000000
								}
							}
						}
					}
				}
				JOINT rclavicle
				{
					OFFSET -0.082954 0.112472 -0.023707
					CHANNELS 3 Zrotation Yrotation Xrotation
					JOINT rshoulder
					{
						OFFSET -0.113228 0.046853 -0.008472
						CHANNELS 3 Zrotation Yrotation Xrotation
						JOINT relbow
						{
							OFFSET -0.260127 -0.014369 -0.031269
							CHANNELS 3 Zrotation Yrotation Xrotation
							JOINT rwrist
							{
								OFFSET -0.269108 0.006794 -0.006027
								CHANNELS 3 Zrotation Yrotation Xrotation
								End Site
								{
									OFFSET 0.000000 0.000000 0.000000
								}
							}
						}
					}
				}
			}
		}
	}
}
MOTION
Frames: 13
Frame Time: 0.033333
-1.759833 0.708422 0.996436 115.831786 -0.556862 85.306251 -0.528208 3.004540 7.667242 -1.096684 -3.203208 1.290500 1.353149 10.870288 -13.663370 0.000000 -0.000000 0.000000 -4.296714 -8.515351 -0.672652 -2.538703 -12.487722 3.961734 3.758105 -12.613261 -4.287751 0.000000 -0.000000 0.000000 -0.864122 1.865629 2.680696 -0.170895 -1.658618 3.423732 -0.610045 -0.404143 -3.960111 1.837280 -3.017861 1.119949 4.733749 -3.952947 6.369062 -28.347566 -4.636491 6.686987 -51.964288 -5.656868 13.955786 5.350383 -22.970893 3.782031 -10.725297 -14.899083 -0.800336 24.145445 7.870694 5.473510 61.311192 -1.338808 11.032231 -15.872750 22.029381 -8.561970 7.324544 12.127128 -14.645665 
-1.759671 0.708302 0.996556 115.811104 -0.537259 85.323492 -0.470631 3.004046 7.551645 -1.143956 -3.252666 1.492087 1.302448 10.891966 -13.730517 0.000000 -0.000000 0.000000 -4.261323 -8.593298 -0.660107 -2.531335 -12.381112 3.945370 3.736944 -12.548524 -4.254289 0.000000 -0.000000 0.000000 -0.856149 1.984760 2.654123 -0.136251 -1.614325 3.495600 -0.604586 -0.488801 -3.969479 1.845237 -3.286897 0.923394 4.499565 -4.101369 6.473765 -28.478174 -4.697873 6.667760 -51.752094 -5.702110 13.954625 5.246902 -22.949772 3.750252 -10.770724 -15.005970 -0.750329 24.143836 7.917154 5.470305 61.255544 -1.277935 11.042998 -15.796224 21.976966 -8.547791 7.371585 12.236815 -14.520025 
-1.759474 0.708241 0.996484 115.854979 -0.508747 85.295958 -0.406343 2.913027 7.325111 -1.219980 -3.303609 2.039311 1.157397 10.918129 -14.082467 0.000000 -0.000000 0.000000 -4.238985 -8.647310 -0.616383 -2.502721 -12.449827 3.929898 3.736956 -12.526018 -4.329009 0.000000 -0.000000 0.000000 -0.847886 2.022818 2.673323 -0.129494 -1.647516 3.522849 -0.596871 -0.512424 -3.951420 1.849744 -3.214942 1.135556 4.595283 -4.004987 6.493892 -28.431063 -4.766224 6.680269 -51.792140 -5.720669 13.913050 5.349657 -22.928779 3.649103 -10.408685 -14.930819 -0.868567 24.096209 8.003270 5.504134 61.289842 -1.238872 11.022014 -15.752937 22.031013 -8.415596 7.290484 12.298574 -14.551166 
-1.759431 0.708449 0.996519 115.890273 -0.505811 85.318911 -0.470036 2.691560 6.795007 -1.335899 -3.653510 3.037856 1.197481 11.353922 -15.042170 0.000000 -0.000000 0.000000 -4.266949 -8.649363 -0.620387 -2.443860 -12.364554 3.968364 3.640050 -12.626244 -4.302783 0.000000 -0.000000 0.000000 -0.794941 2.090467 2.653579 -0.113842 -1.667073 3.644260 -0.650550 -0.482663 -3.974199 1.805304 -3.339244 0.864321 4.459963 -4.163178 6.390736 -28.450904 -4.805987 6.585240 -51.792892 -5.800233 13.975859 5.414388 -22.829658 3.549851 -10.574248 -15.085958 -0.849677 24.034679 8.059068 5.361790 61.346267 -1.344589 11.016802 -15.671857 22.073500 -8.335915 7.391932 12.325312 -14.761616 
-1.759144 0.708621 0.996630 115.805672 -0.545747 85.352051 -0.526463 2.448394 6.345630 -1.540732 -3.821682 3.935951 1.315788 11.643575 -15.634907 0.000000 -0.000000 0.000000 -4.295813 -8.584705 -0.672121 -2.434521 -12.255551 4.009842 3.625496 -12.722697 -4.422121 0.000000 -0.000000 0.000000 -0.797944 2.197301 2.602667 -0.137778 -1.660075 3.774768 -0.704063 -0.424328 -4.057573 1.719706 -3.355740 0.680208 4.452795 -4.068618 6.454216 -28.415058 -4.726624 6.486422 -51.826696 -5.846570 13.987858 5.424064 -22.828029 3.545965 -10.576304 -15.009081 -0.805725 24.067106 8.058806 5.382279 61.365177 -1.258886 11.078678 -15.512569 21.977742 -8.160164 7.453733 12.287136 -14.641382 
-1.758624 0.709161 0.996800 115.575289 -0.593184 85.306019 -0.665181 2.241697 6.117745 -1.689221 -3.952402 4.674828 1.447429 11.907965 -16.412401 0.000000 -0.000000 0.000000 -4.366453 -8.444125 -0.610813 -2.404211 -12.175718 4.015774 3.631543 -12.744154 -4.492556 0.000000 -0.000000 0.000000 -0.725129 2.331428 2.794031 -0.193609 -1.533893 3.788743 -0.806541 -0.344351 -4.307280 1.726258 -3.380172 0.921038 4.659471 -3.891547 6.693054 -28.337497 -4.570876 6.512253 -51.914883 -5.726706 14.043190 5.459169 -23.085105 3.550586 -10.499789 -15.013443 -0.875391 24.137067 8.091462 5.468399 61.453710 -1.268249 11.110325 -15.476189 21.803399 -8.145657 7.268191 12.355345 -14.496243 
-1.757416 0.710477 0.996966 115.461815 -0.600339 85.337738 -0.792545 1.997364 5.978299 -1.755483 -3.918121 5.228399 1.559446 11.953331 -17.129403 0.000000 -0.000000 0.000000 -4.463295 -8.581690 -0.538441 -2.313247 -12.133169 3.964947 3.724502 -12.685177 -4.542340 0.000000 -0.000000 0.000000 -0.608590 2.504030 2.631616 -0.222297 -1.425638 3.868677 -0.869855 -0.374249 -4.207704 1.486590 -3.069442 0.959371 4.864821 -3.814513 6.709766 -28.443535 -4.444636 6.551151 -51.867872 -5.653469 13.897093 5.391781 -23.374825 3.740462 -10.534240 -15.005949 -0.737484 24.287841 8.196170 5.777026 61.264169 -1.122977 11.039948 -15.252177 21.703643 -8.000219 7.229064 12.543367 -14.211211 
-1.755869 0.712077 0.996876 115.563890 -0.526627 85.340291 -0.768524 1.914290 6.007225 -1.836141 -4.244256 5.463598 1.604920 11.925766 -17.527747 0.000000 -0.000000 0.000000 -4.525160 -8.683810 -0.393909 -2.191946 -12.164461 3.983066 3.728909 -12.745212 -4.566451 0.000000 -0.000000 0.000000 -0.452009 2.564676 2.632928 -0.187249 -1.300861 3.949269 -0.826814 -0.327425 -4.134638 1.426887 -3.821174 0.755741 4.391096 -4.370871 6.591747 -28.710238 -4.369868 6.599380 -51.843921 -5.575811 13.843055 5.540776 -23.708491 3.669323 -10.621748 -15.228267 -0.856529 24.081279 8.385874 5.813623 61.345503 -1.235372 11.097367 -15.164655 21.512469 -7.734272 7.490200 12.141131 -14.534440 
-1.754109 0.713614 0.996844 115.511559 -0.487600 85.396282 -0.747389 1.813782 6.036631 -1.999518 -4.499581 5.673636 1.745924 12.046811 -18.054116 0.000000 -0.000000 0.000000 -4.644740 -8.861854 -0.637155 -2.164906 -12.108877 4.643266 3.857787 -12.510113 -4.923239 0.000000 -0.000000 0.000000 -0.506909 2.822349 2.486262 -0.077652 -1.104877 4.352947 -0.782409 -0.276954 -4.228759 1.293513 -3.488061 1.190426 4.838454 -4.118601 6.136912 -28.625162 -4.174421 6.365851 -52.098966 -5.570066 13.772792 5.500928 -23.849783 3.620376 -10.709723 -15.341846 -0.675132 24.160168 8.407262 5.848361 61.199638 -1.269468 10.937483 -15.019090 21.352244 -7.693482 7.209670 12.556245 -13.883806 
-1.752686 0.715530 0.996446 116.112685 -0.360865 85.558485 -0.751384 1.382792 5.779106 -2.011094 -4.970866 6.049895 1.739828 11.949166 -18.634645 0.000000 -0.000000 0.000000 -4.786042 -9.057705 -1.128840 -2.075139 -12.265761 5.774221 4.051308 -12.845797 -5.652699 0.000000 -0.000000 0.000000 -0.422083 2.896780 2.563631 0.045668 -1.029916 4.498039 -0.775090 -0.331902 -4.119570 1.359735 -3.708476 0.939945 4.717793 -4.563847 5.933262 -28.481800 -4.057183 6.229532 -52.346732 -5.557722 13.825864 5.601648 -24.397583 3.401697 -10.351778 -15.146422 -1.010445 24.217394 8.386660 5.810612 61.068072 -1.370314 10.894220 -15.144472 21.397478 -7.960314 7.167551 12.253636 -14.094964 
-1.750732 0.717326 0.996315 116.703599 -0.298073 85.701786 -0.718470 0.984962 5.713796 -2.143732 -5.555100 6.249438 1.715110 11.667110 -19.126043 0.000000 -0.000000 0.000000 -5.069045 -9.304066 -1.936399 -1.995126 -12.416216 7.654990 4.143788 -12.999170 -6.527335 0.000000 -0.000000 0.000000 -0.453174 2.840581 2.996401 0.053722 -0.906818 4.052159 -0.691163 -0.134251 -3.834792 1.483697 -4.484554 0.868518 4.335563 -5.295445 5.672655 -28.380488 -3.769806 6.091511 -52.343604 -5.370246 13.852337 5.578268 -25.273015 3.611647 -10.103046 -14.916931 -1.266976 24.341897 8.310036 5.986991 61.075955 -1.465917 10.857960 -15.416734 21.379982 -8.061009 7.196067 12.335158 -14.291197 
-1.748451 0.719518 0.995319 117.889775 -0.324801 85.861004 -0.749270 0.599940 5.615963 -2.241899 -6.398709 6.391973 1.744353 11.368341 -19.642215 0.000000 -0.000000 0.000000 -5.668340 -9.457586 -3.083859 -1.810042 -12.925269 10.493024 4.323540 -13.356184 -7.962965 0.000000 -0.000000 0.000000 -0.715544 2.912819 3.191807 0.204602 -0.766945 4.453544 -0.627857 -0.296564 -3.850454 1.684444 -4.570527 1.019209 4.662199 -5.870107 5.337267 -28.158580 -3.878641 5.963032 -52.334150 -5.441285 13.827620 5.460590 -25.701259 3.332775 -9.994369 -15.052812 -1.337355 24.403712 8.329569 5.947361 61.169971 -1.780421 10.639012 -15.682308 21.597664 -8.372966 7.062535 12.303625 -14.391029 
-1.746367 0.720811 0.994497 119.093546 -0.345239 85.989256 -0.674350 0.256304 5.504365 -2.371687 -7.141886 6.535795 1.788162 11.053260 -19.999398 0.000000 -0.000000 0.000000 -6.171178 -9.787130 -4.141155 -1.702270 -13.410734 13.067249 4.378679 -13.689310 -8.942525 0.000000 -0.000000 0.000000 -0.940904 2.833413 3.614996 0.286326 -0.730465 4.355269 -0.501368 -0.375563 -3.640206 1.783298 -5.140478 0.620023 4.548544 -6.758267 4.755186 -28.082917 -3.977200 5.915051 -52.089154 -5.399798 13.728087 5.383283 -26.363409 3.440857 -10.083166 -14.914063 -1.294930 24.385436 8.439509 5.917716 61.298824 -2.100757 10.563888 -15.884152 21.729527 -8.177724 7.505374 12.211101 -14.650064 
